<svg xmlns="http://www.w3.org/2000/svg" viewBox="0 0 1200 760" role="img" aria-label="Prospecção">
  <defs>
    <linearGradient id="g" x1="0" x2="1" y1="0" y2="1"><stop offset="0" stop-color="#052e16"/><stop offset="1" stop-color="#020617"/></linearGradient>
    <filter id="glow"><feGaussianBlur stdDeviation="7" result="b"/><feMerge><feMergeNode in="b"/><feMergeNode in="SourceGraphic"/></feMerge></filter>
    <pattern id="grid" width="42" height="42" patternUnits="userSpaceOnUse"><path d="M42 0H0V42" fill="none" stroke="#22c55e" stroke-opacity=".12"/></pattern>
  </defs>
  <rect width="1200" height="760" rx="46" fill="url(#g)"/>
  <rect width="1200" height="760" rx="46" fill="url(#grid)"/>
  <circle cx="940" cy="130" r="220" fill="#22c55e" opacity=".14" filter="url(#glow)"/>
  <g transform="translate(120 140)">
    <rect x="0" y="0" width="760" height="430" rx="28" fill="#07111f" stroke="#22c55e" stroke-opacity=".55"/>
    <rect x="34" y="42" width="250" height="28" rx="14" fill="#22c55e" opacity=".85"/>
    <rect x="34" y="98" width="640" height="18" rx="9" fill="#e5e7eb" opacity=".65"/>
    <rect x="34" y="132" width="520" height="18" rx="9" fill="#94a3b8" opacity=".45"/>
    <g transform="translate(34 190)">
      <rect width="170" height="140" rx="18" fill="#0f172a" stroke="#22c55e" stroke-opacity=".28"/>
      <rect x="24" y="25" width="82" height="18" rx="9" fill="#22c55e" opacity=".85"/>
      <rect x="24" y="70" width="118" height="14" rx="7" fill="#94a3b8" opacity=".5"/>
      <rect x="24" y="98" width="90" height="14" rx="7" fill="#94a3b8" opacity=".35"/>
    </g>
    <g transform="translate(238 190)">
      <rect width="170" height="140" rx="18" fill="#0f172a" stroke="#22c55e" stroke-opacity=".28"/>
      <path d="M24 103 C60 70 90 88 120 50 S150 68 154 36" fill="none" stroke="#22c55e" stroke-width="8" stroke-linecap="round" opacity=".9"/>
    </g>
    <g transform="translate(442 190)">
      <rect width="230" height="140" rx="18" fill="#0f172a" stroke="#22c55e" stroke-opacity=".28"/>
      <rect x="25" y="92" width="30" height="24" rx="6" fill="#22c55e" opacity=".8"/><rect x="73" y="68" width="30" height="48" rx="6" fill="#22c55e" opacity=".55"/><rect x="121" y="42" width="30" height="74" rx="6" fill="#22c55e" opacity=".9"/><rect x="169" y="76" width="30" height="40" rx="6" fill="#22c55e" opacity=".4"/>
    </g>
  </g>
  <g transform="translate(865 475) rotate(-10)">
    <rect width="210" height="130" rx="24" fill="#0b1220" stroke="#22c55e" stroke-opacity=".6"/>
    <rect x="24" y="28" width="115" height="16" rx="8" fill="#22c55e"/><rect x="24" y="60" width="154" height="12" rx="6" fill="#94a3b8" opacity=".45"/><rect x="24" y="88" width="120" height="12" rx="6" fill="#94a3b8" opacity=".3"/>
  </g>
  <text x="90" y="650" fill="#f8fafc" font-family="Arial, sans-serif" font-size="54" font-weight="700">Prospecção</text>
  <text x="92" y="700" fill="#22c55e" font-family="Arial, sans-serif" font-size="26" letter-spacing="2">CRM e leads</text>
</svg>