<svg xmlns="http://www.w3.org/2000/svg" width="1600" height="900" viewBox="0 0 1600 900" role="img" aria-labelledby="title desc"><title id="title">Preview do Portfólio Profissional</title><desc id="desc">Portfólio Full Stack com texto ajustado para o GitHub.</desc><defs><linearGradient id="bg" x1="0" y1="0" x2="1" y2="1"><stop stop-color="#07111f"/><stop offset=".55" stop-color="#14213d"/><stop offset="1" stop-color="#090b16"/></linearGradient><linearGradient id="ac" x1="0" y1="0" x2="1" y2="0"><stop stop-color="#4fd1ff"/><stop offset="1" stop-color="#8b5cf6"/></linearGradient><filter id="sh"><feDropShadow dx="0" dy="18" stdDeviation="22" flood-opacity=".48"/></filter><clipPath id="safe"><rect x="70" y="60" width="720" height="760"/></clipPath></defs><rect width="1600" height="900" fill="url(#bg)"/><circle cx="1420" cy="130" r="330" fill="#4fd1ff" opacity=".07"/><circle cx="170" cy="850" r="280" fill="#8b5cf6" opacity=".08"/><g font-family="Arial,Helvetica,sans-serif"><g clip-path="url(#safe)"><text x="90" y="92" fill="#78dcff" font-size="27" font-weight="700">EVANDRO RICARDO // PORTFÓLIO</text><rect x="90" y="132" width="306" height="44" rx="22" fill="#4fd1ff" opacity=".13"/><text x="112" y="161" fill="#a7e9ff" font-size="17" font-weight="700">FULL STACK • SAAS • IA • AUTOMAÇÃO</text><text x="90" y="304" fill="#fff" font-size="66" font-weight="700">Produtos digitais.</text><text x="90" y="388" fill="url(#ac)" font-size="66" font-weight="700">Problemas resolvidos.</text><text x="94" y="458" fill="#c4d2e3" font-size="23">Projetos completos, arquitetura, UX e IA</text><text x="94" y="493" fill="#c4d2e3" font-size="23">aplicadas a desafios reais de negócio.</text><rect x="92" y="565" width="184" height="54" rx="27" fill="url(#ac)"/><text x="124" y="600" fill="#08121d" font-size="17" font-weight="700">VER PROJETOS</text><rect x="296" y="565" width="160" height="54" rx="27" fill="#fff" opacity=".08"/><text x="333" y="600" fill="#fff" font-size="17" font-weight="700">SOBRE MIM</text></g><g transform="translate(880 100)" filter="url(#sh)"><rect width="630" height="680" rx="34" fill="#0d1525" stroke="#2b4262"/><rect width="630" height="72" rx="34" fill="#0a1020"/><circle cx="38" cy="36" r="8" fill="#4fd1ff"/><circle cx="64" cy="36" r="8" fill="#8b5cf6"/><circle cx="90" cy="36" r="8" fill="#22e0a1"/><text x="124" y="44" fill="#fff" font-size="19" font-weight="700">Projetos em destaque</text><g transform="translate(30 104)"><rect width="270" height="210" rx="22" fill="#14243a" stroke="#31577c"/><rect x="18" y="18" width="234" height="84" rx="16" fill="#2d1438"/><text x="36" y="52" fill="#ff9ed4" font-size="16" font-weight="700">GLOSSFLOW</text><text x="36" y="80" fill="#fff" font-size="21" font-weight="700">Beauty SaaS</text><text x="18" y="138" fill="#aabbd0" font-size="14">React • Fastify • Prisma</text><rect x="18" y="162" width="108" height="32" rx="16" fill="#ff79c6"/><text x="39" y="183" fill="#241128" font-size="12" font-weight="700">FULL STACK</text><rect x="296" width="270" height="210" rx="22" fill="#14243a" stroke="#31577c"/><rect x="314" y="18" width="234" height="84" rx="16" fill="#0b2d49"/><text x="332" y="52" fill="#67c5ff" font-size="16" font-weight="700">LEADHUNTER PRO</text><text x="332" y="80" fill="#fff" font-size="21" font-weight="700">CRM + IA</text><text x="314" y="138" fill="#aabbd0" font-size="14">Node • MongoDB • React</text><rect x="314" y="162" width="108" height="32" rx="16" fill="#39a9ff"/><text x="341" y="183" fill="#06131d" font-size="12" font-weight="700">PRODUTO</text><rect y="236" width="270" height="210" rx="22" fill="#14243a" stroke="#31577c"/><rect x="18" y="254" width="234" height="84" rx="16" fill="#15291e"/><text x="36" y="288" fill="#f5c86a" font-size="16" font-weight="700">MESTRE ORC ENGINE</text><text x="36" y="316" fill="#fff" font-size="21" font-weight="700">IA + Foundry VTT</text><text x="18" y="374" fill="#aabbd0" font-size="14">Groq • TTS • Node.js</text><rect x="18" y="398" width="72" height="32" rx="16" fill="#f5b942"/><text x="47" y="419" fill="#171109" font-size="12" font-weight="700">IA</text><rect x="296" y="236" width="270" height="210" rx="22" fill="#14243a" stroke="#31577c"/><rect x="314" y="254" width="234" height="84" rx="16" fill="#20183a"/><text x="332" y="288" fill="#c9ff39" font-size="16" font-weight="700">DEVCLUB LEVEL UP</text><text x="332" y="316" fill="#fff" font-size="21" font-weight="700">Experiência gamificada</text><text x="314" y="374" fill="#aabbd0" font-size="14">HTML • CSS • JavaScript</text><rect x="314" y="398" width="104" height="32" rx="16" fill="#8b5cf6"/><text x="337" y="419" fill="#fff" font-size="12" font-weight="700">FRONTEND</text></g><rect x="30" y="586" width="570" height="44" rx="22" fill="url(#ac)"/><text x="127" y="614" fill="#08121d" font-size="15" font-weight="700">APLICAÇÕES REAIS • DOCUMENTAÇÃO • QUALIDADE</text></g><text x="90" y="828" fill="#7f93aa" font-size="18">React • Node.js • TypeScript • MongoDB • Prisma • APIs • IA</text></g></svg>